<?xml version="1.0" encoding="utf-8"?>
<!-- Generator: Adobe Illustrator 27.3.1, SVG Export Plug-In . SVG Version: 6.00 Build 0)  -->
<svg version="1.1" id="_图层_1" xmlns="http://www.w3.org/2000/svg" xmlns:xlink="http://www.w3.org/1999/xlink" x="0px" y="0px"
	 viewBox="0 0 119 116.9" style="enable-background:new 0 0 119 116.9;" xml:space="preserve">
<style type="text/css">
	.st0{fill:none;}
	.st1{fill-rule:evenodd;clip-rule:evenodd;fill:#FFFFFF;}
</style>
<path class="st0" d="M104.2,31.5c-1.6-6.7-3.2-12.4-6.7-17C91,5.8,75.4,6,60.2,6v92.6c15.8,0.1,30-0.2,37.7-8.6
	C108,79,105.8,38.3,104.2,31.5z"/>
<path class="st0" d="M104.2,31.5c-1.6-6.7-3.2-12.4-6.7-17C91,5.8,75.4,6,60.2,6v92.6c15.8,0.1,30-0.2,37.7-8.6
	C108,79,105.8,38.3,104.2,31.5z"/>
<path class="st1" d="M20.4,35.3c-6.6,2.3-13.9-3.8-11.5-11c0.7-2,2.2-4,3.8-5c-2.3,1.4,4.7-4.8,12,2.4C29.2,26,24.9,33.7,20.4,35.3z
	"/>
<path class="st1" d="M116.2,27.4c-5.3-18-18.8-23.5-29-26.2C81.1-0.3,73.8,0,66.5,0H34.6v6h12.7c0,0-0.1,91.9,0.2,92.4v0.2h-13v6
	h46.6c6.6-1.4,12.8-2.5,17.8-5.5c8.8-5.3,14-13.6,17.3-24.5C120,62,119.9,39.9,116.2,27.4z M97.9,90c-7.7,8.5-21.8,8.8-37.7,8.6V6
	C75.4,6,91,5.8,97.4,14.4c3.5,4.7,5.2,10.3,6.7,17C105.8,38.3,108,79,97.9,90z"/>
<polygon class="st1" points="118.1,111.2 118.1,116.9 0,116.9 0,111.2 10.8,111.2 10.8,61.7 0,61.7 0,55.7 24,55.7 24,111.2 "/>
</svg>
