<?xml version="1.0" encoding="UTF-8"?>
<svg id="_图层_1" data-name="图层 1" xmlns="http://www.w3.org/2000/svg" viewBox="0 0 119 116.92">
  <defs>
    <style>
      .cls-1 {
        fill: #020202;
      }

      .cls-1, .cls-2 {
        fill-rule: evenodd;
      }

      .cls-2 {
        fill: none;
      }
    </style>
  </defs>
  <path class="cls-2" d="m104.16,31.48c-1.57-6.72-3.23-12.39-6.72-17.04-6.45-8.59-22.09-8.43-37.2-8.4v92.64c15.84.14,29.98-.18,37.68-8.64,10.09-11.08,7.83-51.76,6.24-58.56Z"/>
  <path class="cls-2" d="m104.16,31.48c-1.57-6.72-3.23-12.39-6.72-17.04-6.45-8.59-22.09-8.43-37.2-8.4v92.64c15.84.14,29.98-.18,37.68-8.64,10.09-11.08,7.83-51.76,6.24-58.56Z"/>
  <path class="cls-1" d="m20.4,35.32c-6.56,2.34-13.95-3.75-11.52-11.04.66-1.98,2.2-4.03,3.84-5.04-2.28,1.4,4.68-4.76,12,2.4,4.49,4.39.23,12.06-4.32,13.68Z"/>
  <path class="cls-1" d="m116.16,27.4c-5.32-17.98-18.8-23.46-29.04-26.16C81.07-.35,73.78.04,66.48.04h-31.92v6h12.72s-.08,91.88.24,92.4v.24h-12.96v6h46.56c6.57-1.45,12.78-2.49,17.76-5.52,8.8-5.35,14-13.63,17.28-24.48,3.85-12.73,3.71-34.74,0-47.28Zm-18.24,62.64c-7.7,8.46-21.84,8.78-37.68,8.64V6.04c15.11-.03,30.75-.19,37.2,8.4,3.49,4.65,5.15,10.32,6.72,17.04,1.59,6.8,3.85,47.48-6.24,58.56Z"/>
  <polygon class="cls-1" points="118.08 111.16 118.08 116.92 0 116.92 0 111.16 10.8 111.16 10.8 61.72 0 61.72 0 55.72 24 55.72 24 111.16 118.08 111.16"/>
</svg>